<svg width="228" height="146" viewBox="0 0 228 146" fill="none" xmlns="http://www.w3.org/2000/svg">
<path d="M25.3799 1.59155H191.009C197.715 1.59155 203.152 7.02843 203.152 13.7351V32.8455C203.152 39.5521 197.715 44.989 191.009 44.989H25.3799C18.6732 44.989 13.2363 39.5521 13.2363 32.8455V13.7351C13.2363 7.02843 18.6732 1.59155 25.3799 1.59155Z" fill="#FAFAFA"/>
<path d="M25.3799 1.59155H191.009C197.715 1.59155 203.152 7.02843 203.152 13.7351V32.8455C203.152 39.5521 197.715 44.989 191.009 44.989H25.3799C18.6732 44.989 13.2363 39.5521 13.2363 32.8455V13.7351C13.2363 7.02843 18.6732 1.59155 25.3799 1.59155Z" stroke="#F5F5F5" stroke-width="1.19444"/>
<path opacity="0.6" d="M41.3058 39.2161C50.1015 39.2161 57.2317 32.0858 57.2317 23.2902C57.2317 14.4945 50.1015 7.36426 41.3058 7.36426C32.5102 7.36426 25.3799 14.4945 25.3799 23.2902C25.3799 32.0858 32.5102 39.2161 41.3058 39.2161Z" fill="#A1A1A1"/>
<path d="M38.9463 26.5497C38.9463 26.3879 38.9214 26.2428 38.8717 26.1142C38.8261 25.9815 38.739 25.8612 38.6104 25.7534C38.4818 25.6414 38.3014 25.5315 38.0692 25.4237C37.8369 25.3159 37.5362 25.2039 37.1671 25.0877C36.7565 24.955 36.3667 24.8057 35.9975 24.6398C35.6326 24.4739 35.3091 24.2811 35.0271 24.0613C34.7492 23.8373 34.5294 23.5781 34.3676 23.2836C34.21 22.9892 34.1312 22.647 34.1312 22.2572C34.1312 21.8798 34.2142 21.5376 34.3801 21.2307C34.546 20.9196 34.7782 20.6542 35.0768 20.4344C35.3754 20.2104 35.728 20.0383 36.1344 19.918C36.545 19.7978 36.995 19.7376 37.4844 19.7376C38.1521 19.7376 38.7348 19.8579 39.2325 20.0985C39.7302 20.339 40.1159 20.6687 40.3896 21.0876C40.6675 21.5065 40.8064 21.9855 40.8064 22.5247H38.9525C38.9525 22.2592 38.8966 22.027 38.7846 21.8279C38.6767 21.6247 38.5109 21.465 38.2869 21.3489C38.0671 21.2328 37.7892 21.1747 37.4533 21.1747C37.1298 21.1747 36.8602 21.2245 36.6445 21.324C36.4289 21.4194 36.2671 21.55 36.1593 21.7159C36.0515 21.8777 35.9975 22.0602 35.9975 22.2634C35.9975 22.4168 36.0349 22.5558 36.1095 22.6802C36.1883 22.8046 36.3044 22.9207 36.4579 23.0286C36.6114 23.1364 36.8001 23.238 37.024 23.3334C37.248 23.4288 37.5072 23.5221 37.8016 23.6134C38.2952 23.7627 38.7286 23.9306 39.1019 24.1173C39.4793 24.3039 39.7945 24.5133 40.0475 24.7456C40.3004 24.9778 40.4912 25.2412 40.6198 25.5357C40.7484 25.8301 40.8126 26.164 40.8126 26.5373C40.8126 26.9313 40.7359 27.2838 40.5825 27.5948C40.429 27.9059 40.2071 28.1692 39.9168 28.3849C39.6265 28.6006 39.2802 28.7644 38.8779 28.8764C38.4756 28.9884 38.0256 29.0443 37.5279 29.0443C37.08 29.0443 36.6383 28.9863 36.2028 28.8702C35.7674 28.7499 35.3713 28.5695 35.0146 28.3289C34.6621 28.0884 34.3801 27.7815 34.1685 27.4082C33.957 27.0349 33.8513 26.5932 33.8513 26.0831H35.7238C35.7238 26.3651 35.7674 26.6036 35.8545 26.7985C35.9416 26.9935 36.0639 27.1511 36.2215 27.2713C36.3832 27.3916 36.574 27.4787 36.7938 27.5326C37.0178 27.5865 37.2625 27.6135 37.5279 27.6135C37.8514 27.6135 38.1169 27.5679 38.3242 27.4766C38.5357 27.3854 38.6913 27.2589 38.7908 27.0971C38.8945 26.9354 38.9463 26.7529 38.9463 26.5497ZM43.9481 19.8621V28.9199H42.0817V19.8621H43.9481ZM47.5563 23.7316V25.1873H43.4379V23.7316H47.5563ZM47.9918 19.8621V21.324H43.4379V19.8621H47.9918Z" fill="white"/>
<path d="M116.157 10.5496H74.7495C72.1108 10.5496 69.9717 12.6886 69.9717 15.3273C69.9717 17.966 72.1108 20.1051 74.7495 20.1051H116.157C118.796 20.1051 120.935 17.966 120.935 15.3273C120.935 12.6886 118.796 10.5496 116.157 10.5496Z" fill="#DCDCDC"/>
<path d="M183.746 26.4756H77.2339C73.2231 26.4756 69.9717 28.6147 69.9717 31.2534C69.9717 33.8921 73.2231 36.0311 77.2339 36.0311H183.746C187.757 36.0311 191.009 33.8921 191.009 31.2534C191.009 28.6147 187.757 26.4756 183.746 26.4756Z" fill="#E8E8E8"/>
<path d="M49.2686 51.7581H214.897C221.604 51.7581 227.041 57.1949 227.041 63.9016V83.012C227.041 89.7186 221.604 95.1555 214.897 95.1555H49.2686C42.5619 95.1555 37.125 89.7186 37.125 83.012V63.9016C37.125 57.1949 42.5619 51.7581 49.2686 51.7581Z" fill="#FAFAFA"/>
<path d="M49.2686 51.7581H214.897C221.604 51.7581 227.041 57.1949 227.041 63.9016V83.012C227.041 89.7186 221.604 95.1555 214.897 95.1555H49.2686C42.5619 95.1555 37.125 89.7186 37.125 83.012V63.9016C37.125 57.1949 42.5619 51.7581 49.2686 51.7581Z" stroke="#F5F5F5" stroke-width="1.19444"/>
<path opacity="0.6" d="M65.1945 89.3826C73.9901 89.3826 81.1204 82.2523 81.1204 73.4567C81.1204 64.661 73.9901 57.5308 65.1945 57.5308C56.3988 57.5308 49.2686 64.661 49.2686 73.4567C49.2686 82.2523 56.3988 89.3826 65.1945 89.3826Z" fill="#A1A1A1"/>
<path d="M60.4522 77.1952L62.586 70.0286H64.6638L61.5098 79.0864H60.1411L60.4522 77.1952ZM58.4863 70.0286L60.6139 77.1952L60.9374 79.0864H59.5564L56.4209 70.0286H58.4863ZM72.8819 70.0286V79.0864H71.0156L67.3762 73.0147V79.0864H65.5099V70.0286H67.3762L71.0218 76.1065V70.0286H72.8819Z" fill="white"/>
<path d="M140.046 60.7161H98.6381C95.9994 60.7161 93.8604 62.8551 93.8604 65.4938C93.8604 68.1325 95.9994 70.2716 98.6381 70.2716H140.046C142.684 70.2716 144.823 68.1325 144.823 65.4938C144.823 62.8551 142.684 60.7161 140.046 60.7161Z" fill="#DCDCDC"/>
<path d="M207.635 76.6421H101.123C97.1118 76.6421 93.8604 78.7812 93.8604 81.4199C93.8604 84.0586 97.1118 86.1976 101.123 86.1976H207.635C211.646 86.1976 214.897 84.0586 214.897 81.4199C214.897 78.7812 211.646 76.6421 207.635 76.6421Z" fill="#E8E8E8"/>
<path d="M13.4355 101.925H179.064C185.771 101.925 191.208 107.362 191.208 114.068V133.179C191.208 139.885 185.771 145.322 179.064 145.322H13.4355C6.72887 145.322 1.29199 139.885 1.29199 133.179V114.068C1.29199 107.362 6.72887 101.925 13.4355 101.925Z" fill="#FAFAFA"/>
<path d="M13.4355 101.925H179.064C185.771 101.925 191.208 107.362 191.208 114.068V133.179C191.208 139.885 185.771 145.322 179.064 145.322H13.4355C6.72887 145.322 1.29199 139.885 1.29199 133.179V114.068C1.29199 107.362 6.72887 101.925 13.4355 101.925Z" stroke="#F5F5F5" stroke-width="1.19444"/>
<path opacity="0.6" d="M29.3615 139.549C38.1571 139.549 45.2874 132.419 45.2874 123.623C45.2874 114.828 38.1571 107.698 29.3615 107.698C20.5658 107.698 13.4355 114.828 13.4355 123.623C13.4355 132.419 20.5658 139.549 29.3615 139.549Z" fill="#A1A1A1"/>
<path d="M21.165 120.195H22.7452L25.0718 126.846L27.3985 120.195H28.9787L25.7064 129.253H24.4373L21.165 120.195ZM20.3127 120.195H21.8866L22.1728 126.678V129.253H20.3127V120.195ZM28.257 120.195H29.8372V129.253H27.9708V126.678L28.257 120.195ZM36.1889 126.883C36.1889 126.721 36.164 126.576 36.1142 126.447C36.0686 126.315 35.9815 126.194 35.8529 126.087C35.7244 125.975 35.544 125.865 35.3117 125.757C35.0795 125.649 34.7788 125.537 34.4096 125.421C33.9991 125.288 33.6092 125.139 33.2401 124.973C32.8751 124.807 32.5516 124.614 32.2696 124.395C31.9917 124.171 31.7719 123.911 31.6102 123.617C31.4526 123.322 31.3738 122.98 31.3738 122.59C31.3738 122.213 31.4567 121.871 31.6226 121.564C31.7885 121.253 32.0208 120.987 32.3194 120.768C32.618 120.544 32.9705 120.372 33.377 120.251C33.7875 120.131 34.2375 120.071 34.7269 120.071C35.3947 120.071 35.9774 120.191 36.475 120.432C36.9727 120.672 37.3584 121.002 37.6322 121.421C37.91 121.84 38.049 122.319 38.049 122.858H36.1951C36.1951 122.592 36.1391 122.36 36.0271 122.161C35.9193 121.958 35.7534 121.798 35.5294 121.682C35.3096 121.566 35.0318 121.508 34.6958 121.508C34.3723 121.508 34.1027 121.558 33.8871 121.657C33.6714 121.753 33.5097 121.883 33.4018 122.049C33.294 122.211 33.2401 122.393 33.2401 122.597C33.2401 122.75 33.2774 122.889 33.3521 123.013C33.4309 123.138 33.547 123.254 33.7004 123.362C33.8539 123.47 34.0426 123.571 34.2666 123.667C34.4905 123.762 34.7497 123.855 35.0442 123.947C35.5377 124.096 35.9711 124.264 36.3444 124.451C36.7218 124.637 37.037 124.847 37.29 125.079C37.543 125.311 37.7338 125.574 37.8623 125.869C37.9909 126.163 38.0552 126.497 38.0552 126.871C38.0552 127.265 37.9785 127.617 37.825 127.928C37.6716 128.239 37.4497 128.502 37.1594 128.718C36.869 128.934 36.5227 129.098 36.1204 129.21C35.7181 129.322 35.2682 129.378 34.7705 129.378C34.3226 129.378 33.8809 129.32 33.4454 129.203C33.0099 129.083 32.6138 128.903 32.2572 128.662C31.9046 128.422 31.6226 128.115 31.4111 127.741C31.1996 127.368 31.0938 126.926 31.0938 126.416H32.9664C32.9664 126.698 33.0099 126.937 33.097 127.132C33.1841 127.327 33.3064 127.484 33.464 127.605C33.6258 127.725 33.8166 127.812 34.0364 127.866C34.2603 127.92 34.505 127.947 34.7705 127.947C35.094 127.947 35.3594 127.901 35.5668 127.81C35.7783 127.719 35.9338 127.592 36.0333 127.43C36.137 127.269 36.1889 127.086 36.1889 126.883Z" fill="white"/>
<path d="M104.213 110.883H62.8051C60.1664 110.883 58.0273 113.022 58.0273 115.661C58.0273 118.299 60.1664 120.438 62.8051 120.438H104.213C106.851 120.438 108.99 118.299 108.99 115.661C108.99 113.022 106.851 110.883 104.213 110.883Z" fill="#DCDCDC"/>
<path d="M171.802 126.809H65.2896C61.2788 126.809 58.0273 128.948 58.0273 131.587C58.0273 134.225 61.2788 136.364 65.2896 136.364H171.802C175.813 136.364 179.064 134.225 179.064 131.587C179.064 128.948 175.813 126.809 171.802 126.809Z" fill="#E8E8E8"/>
</svg>
