<svg width="32" height="32" viewBox="0 0 32 32" fill="none" xmlns="http://www.w3.org/2000/svg">
<path d="M6.66699 10.6666V2.66663" stroke="white" stroke-width="2" stroke-linecap="round" stroke-linejoin="round"/>
<path fill-rule="evenodd" clip-rule="evenodd" d="M4.36074 13.072C3.91535 14.8422 3.87968 16.6907 4.25642 18.4767C4.63317 20.2628 5.41241 21.9394 6.53484 23.3789C7.65727 24.8184 9.0933 25.9828 10.7336 26.7836C12.374 27.5844 14.1754 28.0004 16.0007 28H22.0007C23.8647 28 24.7967 28 25.5314 27.696C26.0169 27.495 26.458 27.2003 26.8295 26.8288C27.201 26.4572 27.4957 26.0161 27.6967 25.5307C28.0007 24.796 28.0007 23.864 28.0007 22V16C28.0012 14.1746 27.5851 12.3732 26.7843 10.7329C25.9836 9.09257 24.8191 7.65654 23.3796 6.53411C21.9401 5.41168 20.2635 4.63244 18.4775 4.25569C16.6914 3.87894 14.8429 3.91462 13.0727 4.36001C13.5247 4.83154 13.8283 5.42549 13.9456 6.06805C14.0629 6.71062 13.9888 7.37349 13.7326 7.97432C13.4763 8.57514 13.0492 9.08745 12.5043 9.44758C11.9593 9.80772 11.3206 9.99982 10.6674 10H10.0007V10.6667C10.0006 11.3199 9.80845 11.9586 9.44832 12.5035C9.08818 13.0485 8.57588 13.4756 7.97505 13.7318C7.37422 13.9881 6.71135 14.0621 6.06879 13.9448C5.42622 13.8275 4.83228 13.524 4.36074 13.072ZM12.0007 13.3333C11.6471 13.3333 11.308 13.4738 11.0579 13.7239C10.8079 13.9739 10.6674 14.3131 10.6674 14.6667C10.6674 15.0203 10.8079 15.3594 11.0579 15.6095C11.308 15.8595 11.6471 16 12.0007 16H20.0007C20.3544 16 20.6935 15.8595 20.9436 15.6095C21.1936 15.3594 21.3341 15.0203 21.3341 14.6667C21.3341 14.3131 21.1936 13.9739 20.9436 13.7239C20.6935 13.4738 20.3544 13.3333 20.0007 13.3333H12.0007ZM16.0007 18.6667C15.6471 18.6667 15.308 18.8072 15.0579 19.0572C14.8079 19.3073 14.6674 19.6464 14.6674 20C14.6674 20.3536 14.8079 20.6928 15.0579 20.9428C15.308 21.1929 15.6471 21.3333 16.0007 21.3333H20.0007C20.3544 21.3333 20.6935 21.1929 20.9436 20.9428C21.1936 20.6928 21.3341 20.3536 21.3341 20C21.3341 19.6464 21.1936 19.3073 20.9436 19.0572C20.6935 18.8072 20.3544 18.6667 20.0007 18.6667H16.0007Z" fill="white"/>
<path d="M2.66699 6.66663H10.667" stroke="white" stroke-width="2" stroke-linecap="round" stroke-linejoin="round"/>
</svg>
