<svg width="14" height="14" viewBox="0 0 14 14" fill="none" xmlns="http://www.w3.org/2000/svg">
<path d="M11.375 3.20841L11.0133 9.05633C10.9212 10.5502 10.8751 11.2975 10.5 11.8347C10.3148 12.1003 10.0764 12.3243 9.8 12.4927C9.24175 12.8334 8.49333 12.8334 6.9965 12.8334C5.49733 12.8334 4.74775 12.8334 4.18833 12.4922C3.91177 12.3234 3.67337 12.0989 3.48833 11.833C3.11383 11.2952 3.06833 10.5467 2.9785 9.0505L2.625 3.20841M1.75 3.20841H12.25M9.366 3.20841L8.96758 2.38708C8.70333 1.84108 8.57092 1.56866 8.34283 1.39833C8.29217 1.3606 8.23852 1.32704 8.18242 1.298C7.92983 1.16675 7.6265 1.16675 7.02042 1.16675C6.39858 1.16675 6.08767 1.16675 5.83042 1.30325C5.77355 1.3337 5.71931 1.36882 5.66825 1.40825C5.43783 1.585 5.30892 1.86791 5.05108 2.43316L4.69758 3.20841M5.54167 9.62508V6.12508M8.45833 9.62508V6.12508" stroke="#636363" stroke-linecap="round" stroke-linejoin="round"/>
</svg>
