<svg width="20" height="20" viewBox="0 0 20 20" fill="none" xmlns="http://www.w3.org/2000/svg">
<path fill-rule="evenodd" clip-rule="evenodd" d="M10 5C10.1658 5 10.3247 5.06585 10.4419 5.18306C10.5592 5.30027 10.625 5.45924 10.625 5.625V6.4175L11.3112 6.02125C11.3824 5.97956 11.461 5.95235 11.5427 5.94119C11.6243 5.93002 11.7074 5.93512 11.7871 5.95619C11.8668 5.97726 11.9415 6.01388 12.007 6.06395C12.0725 6.11401 12.1274 6.17654 12.1686 6.24792C12.2098 6.3193 12.2365 6.39813 12.2471 6.47987C12.2578 6.56161 12.2521 6.64464 12.2305 6.72418C12.2089 6.80373 12.1718 6.87822 12.1213 6.94336C12.0708 7.0085 12.0079 7.06301 11.9362 7.10375L11.25 7.5L11.9362 7.89625C12.0079 7.93699 12.0708 7.9915 12.1213 8.05664C12.1718 8.12178 12.2089 8.19627 12.2305 8.27582C12.2521 8.35536 12.2578 8.43839 12.2471 8.52013C12.2365 8.60187 12.2098 8.6807 12.1686 8.75208C12.1274 8.82346 12.0725 8.88599 12.007 8.93605C11.9415 8.98612 11.8668 9.02274 11.7871 9.04381C11.7074 9.06488 11.6243 9.06998 11.5427 9.05881C11.461 9.04765 11.3824 9.02044 11.3112 8.97875L10.625 8.5825V9.375C10.625 9.54076 10.5592 9.69973 10.4419 9.81694C10.3247 9.93415 10.1658 10 10 10C9.83424 10 9.67527 9.93415 9.55806 9.81694C9.44085 9.69973 9.375 9.54076 9.375 9.375V8.5825L8.68875 8.97875C8.61764 9.02044 8.53899 9.04765 8.45733 9.05881C8.37566 9.06998 8.2926 9.06488 8.21291 9.04381C8.13322 9.02274 8.05849 8.98612 7.99301 8.93605C7.92754 8.88599 7.87261 8.82346 7.8314 8.75208C7.79018 8.6807 7.7635 8.60187 7.75287 8.52013C7.74225 8.43839 7.7479 8.35536 7.76949 8.27582C7.79109 8.19627 7.82821 8.12178 7.87871 8.05664C7.92921 7.9915 7.9921 7.93699 8.06375 7.89625L8.75 7.5L8.06375 7.10375C7.92137 7.02028 7.81779 6.88388 7.7756 6.72432C7.73342 6.56476 7.75606 6.395 7.83858 6.25207C7.9211 6.10914 8.05681 6.00465 8.21608 5.96141C8.37536 5.91816 8.54528 5.93968 8.68875 6.02125L9.375 6.4175V5.625C9.375 5.45924 9.44085 5.30027 9.55806 5.18306C9.67527 5.06585 9.83424 5 10 5ZM6.25 11.875C6.25 11.7092 6.31585 11.5503 6.43306 11.4331C6.55027 11.3158 6.70924 11.25 6.875 11.25H13.125C13.2908 11.25 13.4497 11.3158 13.5669 11.4331C13.6842 11.5503 13.75 11.7092 13.75 11.875C13.75 12.0408 13.6842 12.1997 13.5669 12.3169C13.4497 12.4342 13.2908 12.5 13.125 12.5H6.875C6.70924 12.5 6.55027 12.4342 6.43306 12.3169C6.31585 12.1997 6.25 12.0408 6.25 11.875ZM6.25 14.375C6.25 14.2092 6.31585 14.0503 6.43306 13.9331C6.55027 13.8158 6.70924 13.75 6.875 13.75H13.125C13.2908 13.75 13.4497 13.8158 13.5669 13.9331C13.6842 14.0503 13.75 14.2092 13.75 14.375C13.75 14.5408 13.6842 14.6997 13.5669 14.8169C13.4497 14.9342 13.2908 15 13.125 15H6.875C6.70924 15 6.55027 14.9342 6.43306 14.8169C6.31585 14.6997 6.25 14.5408 6.25 14.375Z" fill="#252525"/>
<path d="M3.75 0H16.25C16.913 0 17.5489 0.263392 18.0178 0.732233C18.4866 1.20107 18.75 1.83696 18.75 2.5V17.5C18.75 18.163 18.4866 18.7989 18.0178 19.2678C17.5489 19.7366 16.913 20 16.25 20H3.75C3.08696 20 2.45107 19.7366 1.98223 19.2678C1.51339 18.7989 1.25 18.163 1.25 17.5V16.25H2.5V17.5C2.5 17.8315 2.6317 18.1495 2.86612 18.3839C3.10054 18.6183 3.41848 18.75 3.75 18.75H16.25C16.5815 18.75 16.8995 18.6183 17.1339 18.3839C17.3683 18.1495 17.5 17.8315 17.5 17.5V2.5C17.5 2.16848 17.3683 1.85054 17.1339 1.61612C16.8995 1.3817 16.5815 1.25 16.25 1.25H3.75C3.41848 1.25 3.10054 1.3817 2.86612 1.61612C2.6317 1.85054 2.5 2.16848 2.5 2.5V3.75H1.25V2.5C1.25 1.83696 1.51339 1.20107 1.98223 0.732233C2.45107 0.263392 3.08696 0 3.75 0Z" fill="#252525"/>
<path d="M1.25 6.25V5.625C1.25 5.45924 1.31585 5.30027 1.43306 5.18306C1.55027 5.06585 1.70924 5 1.875 5C2.04076 5 2.19973 5.06585 2.31694 5.18306C2.43415 5.30027 2.5 5.45924 2.5 5.625V6.25H3.125C3.29076 6.25 3.44973 6.31585 3.56694 6.43306C3.68415 6.55027 3.75 6.70924 3.75 6.875C3.75 7.04076 3.68415 7.19973 3.56694 7.31694C3.44973 7.43415 3.29076 7.5 3.125 7.5H0.625C0.45924 7.5 0.300269 7.43415 0.183058 7.31694C0.065848 7.19973 0 7.04076 0 6.875C0 6.70924 0.065848 6.55027 0.183058 6.43306C0.300269 6.31585 0.45924 6.25 0.625 6.25H1.25ZM1.25 10V9.375C1.25 9.20924 1.31585 9.05027 1.43306 8.93306C1.55027 8.81585 1.70924 8.75 1.875 8.75C2.04076 8.75 2.19973 8.81585 2.31694 8.93306C2.43415 9.05027 2.5 9.20924 2.5 9.375V10H3.125C3.29076 10 3.44973 10.0658 3.56694 10.1831C3.68415 10.3003 3.75 10.4592 3.75 10.625C3.75 10.7908 3.68415 10.9497 3.56694 11.0669C3.44973 11.1842 3.29076 11.25 3.125 11.25H0.625C0.45924 11.25 0.300269 11.1842 0.183058 11.0669C0.065848 10.9497 0 10.7908 0 10.625C0 10.4592 0.065848 10.3003 0.183058 10.1831C0.300269 10.0658 0.45924 10 0.625 10H1.25ZM1.25 13.75V13.125C1.25 12.9592 1.31585 12.8003 1.43306 12.6831C1.55027 12.5658 1.70924 12.5 1.875 12.5C2.04076 12.5 2.19973 12.5658 2.31694 12.6831C2.43415 12.8003 2.5 12.9592 2.5 13.125V13.75H3.125C3.29076 13.75 3.44973 13.8158 3.56694 13.9331C3.68415 14.0503 3.75 14.2092 3.75 14.375C3.75 14.5408 3.68415 14.6997 3.56694 14.8169C3.44973 14.9342 3.29076 15 3.125 15H0.625C0.45924 15 0.300269 14.9342 0.183058 14.8169C0.065848 14.6997 0 14.5408 0 14.375C0 14.2092 0.065848 14.0503 0.183058 13.9331C0.300269 13.8158 0.45924 13.75 0.625 13.75H1.25Z" fill="#252525"/>
</svg>
