<svg width="19" height="18" viewBox="0 0 19 18" fill="none" xmlns="http://www.w3.org/2000/svg">
<g clip-path="url(#clip0_148_11734)">
<path d="M2.35449 16.9805C2.35449 13.8455 4.67267 11.2521 7.68833 10.8207M13.4645 12.724C12.8424 12.0314 11.8051 11.8451 11.0256 12.4794C10.2463 13.1136 10.1365 14.174 10.7486 14.9241C11.0942 15.3476 11.9152 16.09 12.5647 16.6563C12.8727 16.9249 13.0267 17.0592 13.213 17.1141C13.3719 17.161 13.5571 17.161 13.716 17.1141C13.9023 17.0592 14.0563 16.9249 14.3643 16.6563C15.0138 16.09 15.8349 15.3476 16.1804 14.9241C16.7926 14.174 16.6962 13.1069 15.9034 12.4794C15.1105 11.8518 14.0866 12.0314 13.4645 12.724ZM12.1332 4.53489C12.1332 6.49876 10.5411 8.09078 8.5773 8.09078C6.61343 8.09078 5.02141 6.49876 5.02141 4.53489C5.02141 2.57103 6.61343 0.979004 8.5773 0.979004C10.5411 0.979004 12.1332 2.57103 12.1332 4.53489Z" stroke="black" stroke-opacity="0.5" stroke-width="1.78879" stroke-linecap="round" stroke-linejoin="round"/>
</g>
<defs>
<clipPath id="clip0_148_11734">
<rect width="17.5064" height="17.5064" fill="white" transform="translate(0.712891 0.241699)"/>
</clipPath>
</defs>
</svg>
