<svg width="38" height="37" viewBox="0 0 38 37" fill="none" xmlns="http://www.w3.org/2000/svg">
<path d="M15.0871 12.9444C15.07 13.4633 15.1552 13.9805 15.3379 14.4665C15.5206 14.9525 15.7973 15.3978 16.1521 15.7769C16.5069 16.156 16.9329 16.4614 17.4057 16.6759C17.8786 16.8903 18.3891 17.0095 18.908 17.0267C19.4269 17.0439 19.9442 16.9587 20.4302 16.7759C20.9162 16.5932 21.3614 16.3166 21.7405 15.9618C22.1196 15.6069 22.4251 15.181 22.6395 14.7081C22.854 14.2352 22.9732 13.7248 22.9903 13.2058C23.0075 12.6869 22.9223 12.1697 22.7396 11.6837C22.5568 11.1977 22.2802 10.7524 21.9254 10.3733C21.5706 9.99426 21.1446 9.68877 20.6717 9.47433C20.1989 9.25988 19.6884 9.14067 19.1695 9.1235C18.6505 9.10633 18.1333 9.19154 17.6473 9.37427C17.1613 9.557 16.716 9.83366 16.337 10.1885C15.9579 10.5433 15.6524 10.9693 15.4379 11.4421C15.2235 11.915 15.1043 12.4254 15.0871 12.9444Z" stroke="#5D5D5D" stroke-width="1.72" stroke-linecap="round" stroke-linejoin="round"/>
<path d="M26.9469 27.5722C26.2991 26.0118 25.2021 24.6781 23.7945 23.7397C22.387 22.8014 20.7322 22.3005 19.0394 22.3005C17.3465 22.3005 15.6917 22.8014 14.2842 23.7397C12.8767 24.6781 11.7797 26.0118 11.1318 27.5722" stroke="#5D5D5D" stroke-width="1.72" stroke-linecap="round" stroke-linejoin="round"/>
</svg>
